<svg width="128" height="118" viewBox="0 0 128 118" fill="none" xmlns="http://www.w3.org/2000/svg">
<path d="M114.196 61.5098C116.969 61.5098 119.216 59.2625 119.216 56.4902C119.216 53.718 116.969 51.4706 114.196 51.4706L114.196 61.5098ZM15.2744 52.9407C13.3141 54.901 13.3141 58.0792 15.2743 60.0395L47.2189 91.9841C49.1792 93.9444 52.3574 93.9444 54.3177 91.9842C56.278 90.0239 56.278 86.8456 54.3177 84.8854L25.9225 56.4901L54.3178 28.095C56.278 26.1347 56.278 22.9565 54.3178 20.9962C52.3575 19.0359 49.1793 19.0359 47.219 20.9962L15.2744 52.9407ZM114.196 51.4706L18.8238 51.4705L18.8237 61.5097L114.196 61.5098L114.196 51.4706Z" fill="#9BA2BF"/>
</svg>
