<svg width="118" height="128" viewBox="0 0 118 128" fill="none" xmlns="http://www.w3.org/2000/svg">
<path d="M113.648 57.3331C111.44 57.3331 109.648 55.5411 109.648 53.3331C109.648 38.0157 103.686 23.6212 92.8589 12.7891C91.2964 11.2266 91.2964 8.69342 92.8589 7.13092C94.4214 5.56842 96.9546 5.56842 98.5181 7.13092C110.854 19.4717 117.648 35.8829 117.648 53.3331C117.648 55.5411 115.856 57.3331 113.648 57.3331V57.3331Z" fill="#9BA2BF"/>
<path d="M4.31445 57.3329C2.10645 57.3329 0.314453 55.5409 0.314453 53.3329C0.314453 35.8827 7.10938 19.4716 19.4502 7.13565C21.0127 5.57315 23.5469 5.57315 25.1094 7.13565C26.6719 8.69815 26.6719 11.2323 25.1094 12.7948C14.2773 23.621 8.31445 38.0155 8.31445 53.3329C8.31445 55.5409 6.52246 57.3329 4.31445 57.3329Z" fill="#9BA2BF"/>
<path d="M58.981 128C47.9517 128 38.981 119.029 38.981 108C38.981 105.792 40.7729 104 42.981 104C45.189 104 46.981 105.792 46.981 108C46.981 114.619 52.3618 120 58.981 120C65.5991 120 70.981 114.619 70.981 108C70.981 105.792 72.773 104 74.981 104C77.189 104 78.981 105.792 78.981 108C78.981 119.029 70.0103 128 58.981 128V128Z" fill="#9BA2BF"/>
<path d="M102.982 112H14.9819C9.83447 112 5.64795 107.813 5.64795 102.667C5.64795 99.9355 6.8374 97.3496 8.9126 95.5732C17.0239 88.7197 21.6479 78.7578 21.6479 68.2031V53.333C21.6479 32.7471 38.395 16 58.9819 16C79.5679 16 96.3149 32.7471 96.3149 53.333V68.2031C96.3149 78.7578 100.939 88.7197 108.998 95.5361C111.125 97.3496 112.315 99.9355 112.315 102.667C112.315 107.813 108.128 112 102.982 112V112ZM58.9819 24C42.8052 24 29.6479 37.1572 29.6479 53.333V68.2031C29.6479 81.1143 23.9897 93.3066 14.1284 101.643C13.9419 101.803 13.6479 102.134 13.6479 102.667C13.6479 103.392 14.2563 104 14.9819 104H102.982C103.707 104 104.315 103.392 104.315 102.667C104.315 102.134 104.022 101.803 103.845 101.653C93.9731 93.3066 88.3149 81.1143 88.3149 68.2031V53.333C88.3149 37.1572 75.1577 24 58.9819 24V24Z" fill="#9BA2BF"/>
<path d="M58.981 24C56.7729 24 54.981 22.208 54.981 20V4C54.981 1.79199 56.7729 0 58.981 0C61.189 0 62.981 1.79199 62.981 4V20C62.981 22.208 61.189 24 58.981 24Z" fill="#9BA2BF"/>
</svg>
