<svg width="128" height="128" viewBox="0 0 128 128" fill="none" xmlns="http://www.w3.org/2000/svg">
<path d="M64 0C28.7118 0 0 28.7118 0 64C0 99.2882 28.7118 128 64 128C99.2882 128 128 99.2882 128 64C128 28.7118 99.2882 0 64 0ZM99.7694 47.1579L58.8672 87.7393C56.4612 90.1454 52.6115 90.3058 50.0451 87.8997L28.391 68.1704C25.8246 65.7644 25.6642 61.7544 27.9098 59.188C30.3158 56.6216 34.3258 56.4612 36.8922 58.8672L54.0551 74.5865L90.6266 38.015C93.193 35.4486 97.203 35.4486 99.7694 38.015C102.336 40.5815 102.336 44.5915 99.7694 47.1579Z" fill="#9BA2BF"/>
</svg>
