<svg width="128" height="128" viewBox="0 0 128 128" fill="none" xmlns="http://www.w3.org/2000/svg">
<path d="M64 0C28.709 0 0 28.709 0 64C0 99.291 28.709 128 64 128C99.291 128 128 99.291 128 64C128 28.709 99.291 0 64 0ZM94.4375 97.1035C93.3975 98.1436 92.0322 98.667 90.667 98.667C89.3018 98.667 87.9355 98.1436 86.8965 97.1035L60.2295 70.4375C59.2266 69.4404 58.667 68.085 58.667 66.667V32C58.667 29.0508 61.0557 26.667 64 26.667C66.9443 26.667 69.333 29.0508 69.333 32V64.459L94.4375 89.5625C96.5225 91.6484 96.5225 95.0186 94.4375 97.1035V97.1035Z" fill="#9BA2BF"/>
</svg>
