<svg width="128" height="128" viewBox="0 0 128 128" fill="none" xmlns="http://www.w3.org/2000/svg">
<path d="M128.497 63.965C128.515 99.25 99.775 128 64.5 128C29.225 128 0.485006 99.25 0.500006 63.9675C0.515006 28.685 29.285 -0.0324724 64.565 2.75583e-05C99.79 0.0325275 128.48 28.735 128.497 63.965ZM64.585 8.53503C34.0575 8.46253 9.105 33.34 9.0325 63.9125C8.9625 94.4375 33.8425 119.395 64.4125 119.465C94.9825 119.535 119.892 94.6675 119.965 64.085C120.037 33.5525 95.1675 8.60753 64.585 8.53503Z" fill="url(#paint0_linear)"/>
<path d="M94.9898 40.6229C94.8579 41.1793 94.6969 41.7284 94.5073 42.2679C90.264 53.3279 86.0231 64.387 81.7848 75.4453C81.5149 76.2199 81.0731 76.9232 80.4924 77.5026C79.9118 78.0819 79.2074 78.5222 78.4323 78.7903C67.3673 83.0103 56.3106 87.2537 45.2623 91.5203C43.3848 92.2453 41.6698 92.1703 40.2198 90.7078C38.7698 89.2453 38.7198 87.5328 39.4473 85.6578C43.684 74.6928 47.8956 63.7178 52.0823 52.7329C52.7623 50.9454 53.8548 49.7879 55.6648 49.1004C66.6948 44.9104 77.6998 40.6529 88.7173 36.4279C91.9973 35.1704 94.9923 37.0004 94.9898 40.6229ZM50.6948 80.2128C51.1098 80.0853 51.2773 80.0453 51.4448 79.9853C58.7648 77.1753 66.0923 74.3803 73.3948 71.5178C73.966 71.2357 74.4117 70.7508 74.6448 70.1578C77.3948 63.0979 80.0998 56.0179 82.8073 48.9404C82.9423 48.5929 83.0448 48.2329 83.2273 47.6904C75.4548 50.6904 67.8923 53.5854 60.3398 56.5179C59.985 56.669 59.7002 56.9485 59.5423 57.3004C56.5973 64.8503 53.6923 72.4178 50.6948 80.2128Z" fill="url(#paint1_linear)"/>
<defs>
<linearGradient id="paint0_linear" x1="10.0998" y1="1.50125e-06" x2="128.5" y2="127.998" gradientUnits="userSpaceOnUse">
<stop stop-color="#16CC6D"/>
<stop offset="1" stop-color="#06A48E"/>
</linearGradient>
<linearGradient id="paint1_linear" x1="43.1875" y1="36.032" x2="94.9242" y2="92.0294" gradientUnits="userSpaceOnUse">
<stop stop-color="#16CC6D"/>
<stop offset="1" stop-color="#06A48E"/>
</linearGradient>
</defs>
</svg>
