<svg width="101" height="128" viewBox="0 0 101 128" fill="none" xmlns="http://www.w3.org/2000/svg">
<path d="M50.6069 0C37.3509 0.0157279 24.6423 5.31872 15.2689 14.7457C5.89548 24.1727 0.622625 36.9539 0.606987 50.2857C0.59111 61.1805 4.12962 71.7796 10.6797 80.4571C10.6797 80.4571 12.0433 82.2629 12.2661 82.5234L50.6069 128L88.966 82.5006C89.166 82.2583 90.5342 80.4571 90.5342 80.4571L90.5387 80.4434C97.0855 71.7697 100.622 61.1755 100.607 50.2857C100.591 36.9539 95.3184 24.1727 85.945 14.7457C76.5715 5.31872 63.8629 0.0157279 50.6069 0V0ZM50.6069 68.5714C47.0109 68.5714 43.4956 67.499 40.5057 65.4897C37.5157 63.4805 35.1853 60.6246 33.8091 57.2834C32.433 53.9421 32.0729 50.2654 32.7745 46.7184C33.476 43.1713 35.2077 39.9131 37.7505 37.3558C40.2932 34.7985 43.5329 33.0569 47.0598 32.3514C50.5868 31.6458 54.2425 32.0079 57.5648 33.3919C60.8871 34.7759 63.7267 37.1196 65.7245 40.1267C67.7224 43.1338 68.7887 46.6691 68.7887 50.2857C68.7827 55.1335 66.8652 59.7811 63.4568 63.209C60.0483 66.6369 55.4272 68.5654 50.6069 68.5714V68.5714Z" fill="#9BA2BF"/>
</svg>
