<svg width="128" height="128" viewBox="0 0 128 128" fill="none" xmlns="http://www.w3.org/2000/svg">
<path d="M92.4517 27.0486C92.2503 14.314 83.1822 3.53406 70.6719 0.708314C69.5362 0.450518 68.403 0.232768 67.2698 0H61.7298C61.4622 0.100116 61.1868 0.177973 60.9063 0.232768C47.5599 1.8246 36.7594 13.3579 36.5378 26.6757C36.338 38.6895 36.338 50.7033 36.5378 62.7171C36.7896 76.6181 47.6858 88.1238 61.5988 89.568C77.7152 91.2424 92.1344 78.8431 92.4492 62.7171C92.6859 50.8259 92.6456 38.9323 92.4517 27.0486ZM84.3935 63.03C84.3582 64.1542 84.1951 65.2709 83.9075 66.3588C81.626 75.9348 73.1044 82.1269 62.9536 81.6013C53.8302 81.1333 45.8425 73.6522 44.6791 64.3565C44.4273 62.3817 44.5305 60.3519 44.5204 58.3496C44.5204 56.3056 44.5204 54.259 44.5204 52.21C44.5204 49.7522 44.5204 47.296 44.5204 44.8415C44.5204 42.2486 44.5204 39.6531 44.5204 37.0626C44.5204 33.9841 44.5204 30.9055 44.5507 27.827C44.674 16.4414 53.7597 7.75892 65.2049 8.00921C75.3003 8.23697 84.1568 16.5866 84.3608 26.6206C84.6101 38.7571 84.4363 50.896 84.3935 63.03Z" fill="url(#paint0_linear)"/>
<path d="M0.5 31.7812C1.3095 30.0253 2.46891 28.7179 4.65455 28.7103C6.89765 28.7103 8.80389 30.3674 8.83261 32.5439C8.89267 36.755 8.88223 40.9687 8.83261 45.1798C8.79833 46.0699 8.46088 46.9237 7.87308 47.6078C7.28528 48.2919 6.4803 48.7675 5.58417 48.9602C4.6844 49.1427 3.74782 49.0347 2.91716 48.6528C2.0865 48.2708 1.40731 47.6358 0.983088 46.8445C0.823799 46.5532 0.669734 46.2592 0.5 45.9704V31.7812Z" fill="url(#paint1_linear)"/>
<path d="M60.4555 119.937V108.171C57.8857 107.667 55.3009 107.347 52.8364 106.619C34.1164 101.087 22.6906 88.728 18.5588 69.5404C18.4303 69.0191 18.4093 68.4768 18.4971 67.9469C18.5849 67.4171 18.7797 66.9109 19.0695 66.4595C19.3593 66.0081 19.738 65.6211 20.1822 65.3222C20.6265 65.0234 21.1269 64.819 21.6526 64.7217C23.8715 64.2708 25.7869 65.6613 26.4162 67.9283C27.3338 71.1853 28.0935 74.5405 29.4774 77.5985C36.2141 92.4879 51.663 101.717 68.2527 99.886C86.1938 97.9061 98.8197 85.989 102.6 68.1928C103.069 65.9761 104.636 64.5807 106.634 64.5983C107.587 64.6078 108.504 64.9616 109.218 65.5948C109.932 66.228 110.395 67.0984 110.523 68.0467C110.631 68.8905 110.455 69.81 110.272 70.6488C106.226 89.7448 91.4688 104.072 72.3118 107.526C71.0858 107.745 69.8422 107.871 68.5812 108.045V119.937H69.9676C78.1133 119.937 86.264 119.922 94.4046 119.937C97.4007 119.937 99.3562 122.644 98.3459 125.335C97.7642 126.886 96.5909 127.748 94.9687 127.967C94.683 127.995 94.3958 128.005 94.1088 127.997C74.386 127.997 54.6632 127.997 34.9404 127.997C33.2055 127.997 31.8191 127.43 30.9441 125.904C30.5979 125.299 30.416 124.613 30.4166 123.915C30.4173 123.217 30.6005 122.532 30.9478 121.928C31.2952 121.323 31.7945 120.821 32.3958 120.472C32.9971 120.122 33.6792 119.938 34.3738 119.937C37.3824 119.874 40.391 119.922 43.3995 119.922L60.4555 119.937Z" fill="url(#paint2_linear)"/>
<path d="M26.8137 38.4192C26.8137 42.129 26.8137 45.8388 26.8137 49.5486C26.8137 52.0944 25.0587 53.8516 22.6052 53.8316C20.2251 53.8141 18.4622 52.0518 18.4569 49.5761C18.4395 42.0347 18.4395 34.4908 18.4569 26.9444C18.4569 24.4687 20.2198 22.739 22.6262 22.729C25.0822 22.729 26.8111 24.4812 26.8111 27.032C26.8242 30.8344 26.8137 34.6268 26.8137 38.4192Z" fill="url(#paint3_linear)"/>
<path d="M102.185 38.2966C102.185 34.5411 102.185 30.7857 102.185 27.0302C102.185 24.454 103.893 22.7215 106.365 22.729C108.791 22.729 110.544 24.5166 110.544 27.0703C110.56 34.5345 110.56 41.9978 110.544 49.4603C110.544 52.034 108.825 53.8141 106.396 53.8316C103.906 53.8516 102.193 52.0791 102.188 49.4202C102.177 45.7173 102.185 42.007 102.185 38.2966Z" fill="url(#paint4_linear)"/>
<path d="M120.127 38.7556C120.127 36.855 120.127 34.9544 120.127 33.0589C120.127 30.4842 121.872 28.6977 124.328 28.7103C126.715 28.723 128.474 30.5045 128.484 32.9829C128.505 36.9057 128.505 40.8293 128.484 44.7538C128.471 47.2423 126.728 49.0263 124.348 49.0466C121.919 49.0643 120.15 47.2524 120.132 44.7031C120.119 42.7189 120.132 40.7372 120.132 38.7556H120.127Z" fill="url(#paint5_linear)"/>
<defs>
<linearGradient id="paint0_linear" x1="40.6048" y1="1.05228e-06" x2="117.913" y2="52.3744" gradientUnits="userSpaceOnUse">
<stop stop-color="#16CC6D"/>
<stop offset="1" stop-color="#06A48E"/>
</linearGradient>
<linearGradient id="paint1_linear" x1="1.12804" y1="28.7103" x2="15.1484" y2="34.9514" gradientUnits="userSpaceOnUse">
<stop stop-color="#16CC6D"/>
<stop offset="1" stop-color="#06A48E"/>
</linearGradient>
<linearGradient id="paint2_linear" x1="25.3523" y1="64.5981" x2="78.6523" y2="148.313" gradientUnits="userSpaceOnUse">
<stop stop-color="#16CC6D"/>
<stop offset="1" stop-color="#06A48E"/>
</linearGradient>
<linearGradient id="paint3_linear" x1="19.0719" y1="22.729" x2="34.5585" y2="27.2365" gradientUnits="userSpaceOnUse">
<stop stop-color="#16CC6D"/>
<stop offset="1" stop-color="#06A48E"/>
</linearGradient>
<linearGradient id="paint4_linear" x1="102.81" y1="22.729" x2="118.297" y2="27.2365" gradientUnits="userSpaceOnUse">
<stop stop-color="#16CC6D"/>
<stop offset="1" stop-color="#06A48E"/>
</linearGradient>
<linearGradient id="paint5_linear" x1="120.754" y1="28.7103" x2="134.774" y2="34.9514" gradientUnits="userSpaceOnUse">
<stop stop-color="#16CC6D"/>
<stop offset="1" stop-color="#06A48E"/>
</linearGradient>
</defs>
</svg>
