<svg width="128" height="128" viewBox="0 0 128 128" fill="none" xmlns="http://www.w3.org/2000/svg">
<circle cx="64.5" cy="64" r="62.5" stroke="#9BA2BF" stroke-width="3"/>
<path d="M91.2813 48.7641C90.8256 48.2341 90.0465 48.0975 89.2667 48.433L82.7324 51.2446C78.4105 44.1397 70.5933 39.3846 61.6867 39.3846C48.1137 39.3846 37.0713 50.427 37.0713 64C37.0713 77.573 48.1137 88.6154 61.6867 88.6154C63.584 88.6154 65.122 87.0774 65.122 85.1801C65.122 83.2828 63.584 81.7448 61.6867 81.7448C51.9021 81.7446 43.9419 73.7844 43.9419 64C43.9419 54.2156 51.9021 46.2552 61.6867 46.2552C67.7635 46.2552 73.136 49.3263 76.3354 53.9973L70.1054 56.678C69.4381 56.9652 69.0208 57.4731 68.9604 58.0715C68.9001 58.6698 69.2077 59.2509 69.8043 59.6653L85.8647 70.8264C86.2304 71.0804 86.6288 71.2149 87.0166 71.2149C87.0168 71.2149 87.0168 71.2149 87.0168 71.2149C87.8804 71.2149 88.5592 70.5674 88.7056 69.604L91.6432 50.2681C91.7334 49.6746 91.6049 49.1406 91.2813 48.7641Z" fill="#9BA2BF"/>
</svg>
