<svg width="128" height="128" viewBox="0 0 128 128" fill="none" xmlns="http://www.w3.org/2000/svg">
<path d="M70.2255 128H58.2789C54.2415 128 50.8335 124.976 50.3535 120.96L49.0789 110.955C46.5349 110.128 44.0815 109.109 41.7509 107.92L33.7829 114.112C30.5509 116.613 26.0015 116.325 23.1962 113.44L14.7962 105.04C11.9322 102.261 11.6442 97.712 14.1455 94.4853L20.3375 86.512C19.1429 84.1813 18.1242 81.728 17.3029 79.184L7.2762 77.9093C3.2762 77.4187 0.252197 74.0107 0.252197 69.9733V58.0267C0.252197 53.9893 3.2762 50.5813 7.2922 50.1013L17.2975 48.8267C18.1242 46.2827 19.1429 43.8293 20.3322 41.4987L14.1455 33.5307C11.6389 30.2987 11.9322 25.744 14.8229 22.9387L23.2229 14.5387C26.0015 11.6747 30.5562 11.392 33.7775 13.888L41.7455 20.0853C44.0762 18.896 46.5295 17.8773 49.0789 17.0507L50.3535 7.024C50.8335 3.024 54.2415 0 58.2789 0H70.2255C74.2629 0 77.6709 3.024 78.1509 7.04L79.4255 17.0453C81.9749 17.872 84.4282 18.8907 86.7589 20.08L94.7269 13.888C97.9642 11.3867 102.508 11.6747 105.314 14.5653L113.714 22.9653C116.578 25.744 116.866 30.2933 114.364 33.52L108.172 41.4933C109.367 43.824 110.386 46.2773 111.207 48.8213L121.234 50.096C125.228 50.5813 128.252 53.9893 128.252 58.0267V69.9733C128.252 74.0107 125.228 77.4187 121.212 77.8987L111.207 79.1733C110.38 81.7173 109.362 84.1707 108.172 86.5013L114.364 94.4693C116.871 97.7013 116.578 102.251 113.687 105.056L105.287 113.456C102.508 116.32 97.9535 116.613 94.7322 114.107L86.7589 107.915C84.4282 109.109 81.9749 110.128 79.4309 110.949L78.1562 120.976C77.6709 124.976 74.2629 128 70.2255 128V128ZM41.4789 102.08C41.9215 102.08 42.3749 102.192 42.7802 102.416C45.7189 104.059 48.9029 105.381 52.2415 106.341C53.2655 106.635 54.0175 107.509 54.1509 108.565L55.6442 120.299C55.8042 121.637 56.9615 122.667 58.2789 122.667H70.2255C71.5429 122.667 72.7002 121.637 72.8549 120.325L74.3535 108.571C74.4869 107.515 75.2389 106.64 76.2629 106.347C79.6015 105.387 82.7855 104.064 85.7242 102.421C86.6575 101.899 87.8202 101.989 88.6575 102.645L97.9909 109.899C99.0629 110.731 100.567 110.661 101.484 109.717L109.938 101.264C110.903 100.325 110.978 98.8213 110.146 97.744L102.892 88.4107C102.236 87.568 102.146 86.4107 102.668 85.4773C104.311 82.5387 105.634 79.3547 106.594 76.016C106.887 74.992 107.762 74.24 108.818 74.1067L120.551 72.6133C121.89 72.448 122.919 71.2907 122.919 69.9733V58.0267C122.919 56.7093 121.89 55.552 120.578 55.3973L108.823 53.8987C107.767 53.7653 106.892 53.0133 106.599 51.9893C105.639 48.6507 104.316 45.4667 102.674 42.528C102.151 41.5947 102.236 40.4373 102.898 39.5947L110.151 30.2613C110.988 29.184 110.914 27.68 109.975 26.7733L101.522 18.32C100.588 17.3493 99.0789 17.2747 98.0015 18.112L88.6682 25.3653C87.8202 26.0213 86.6629 26.112 85.7295 25.5893C82.8015 23.9467 79.6175 22.6293 76.2682 21.664C75.2442 21.3707 74.4922 20.496 74.3589 19.44L72.8655 7.70667C72.7002 6.36267 71.5429 5.33333 70.2255 5.33333H58.2789C56.9615 5.33333 55.8042 6.36267 55.6495 7.67467L54.1509 19.4293C54.0175 20.4853 53.2655 21.36 52.2415 21.6587C48.8922 22.6187 45.7082 23.9413 42.7802 25.5787C41.8469 26.1067 40.6895 26.0107 39.8415 25.36L30.5082 18.1067C29.4309 17.2693 27.9322 17.344 27.0202 18.2827L18.5669 26.7413C17.6015 27.68 17.5269 29.184 18.3589 30.2613L25.6122 39.5947C26.2682 40.4373 26.3589 41.5947 25.8362 42.528C24.1882 45.4667 22.8709 48.6507 21.9109 51.9893C21.6175 53.0133 20.7429 53.7653 19.6869 53.8987L7.95353 55.392C6.61486 55.552 5.58553 56.7093 5.58553 58.0267V69.9733C5.58553 71.2907 6.61486 72.448 7.92686 72.6027L19.6815 74.1013C20.7375 74.2347 21.6122 74.9867 21.9055 76.0107C22.8655 79.3493 24.1882 82.5333 25.8309 85.472C26.3535 86.4053 26.2682 87.5627 25.6069 88.4053L18.3535 97.7387C17.5162 98.816 17.5909 100.32 18.5295 101.227L26.9829 109.68C27.9162 110.645 29.4149 110.72 30.5029 109.888L39.8362 102.635C40.3215 102.272 40.8975 102.08 41.4789 102.08V102.08Z" fill="#9BA2BF"/>
<path d="M64.2514 90.6672C49.5474 90.6672 37.5847 78.7046 37.5847 64.0006C37.5847 49.2966 49.5474 37.3339 64.2514 37.3339C78.9554 37.3339 90.9181 49.2966 90.9181 64.0006C90.9181 78.7046 78.9554 90.6672 64.2514 90.6672ZM64.2514 42.6673C52.4861 42.6673 42.9181 52.2353 42.9181 64.0006C42.9181 75.7659 52.4861 85.3339 64.2514 85.3339C76.0167 85.3339 85.5847 75.7659 85.5847 64.0006C85.5847 52.2353 76.0167 42.6673 64.2514 42.6673Z" fill="#9BA2BF"/>
</svg>
